{
    "asset" : {
        "generator" : "Khronos glTF Blender I/O v3.3.27",
        "version" : "2.0"
    },
    "scene" : 0,
    "scenes" : [
        {
            "name" : "Scene",
            "nodes" : [
                0
            ]
        }
    ],
    "nodes" : [
        {
            "mesh" : 0,
            "name" : "shirt_GR_Final",
            "rotation" : [
                0.7071068286895752,
                0,
                0,
                0.7071067094802856
            ],
            "translation" : [
                -0.019803285598754883,
                0.04449629783630371,
                0.06398260593414307
            ]
        }
    ],
    "meshes" : [
        {
            "name" : "shirt_GR_Final.006",
            "primitives" : [
                {
                    "attributes" : {
                        "POSITION" : 0,
                        "NORMAL" : 1,
                        "TEXCOORD_0" : 2
                    },
                    "indices" : 3
                }
            ]
        }
    ],
    "accessors" : [
        {
            "bufferView" : 0,
            "componentType" : 5126,
            "count" : 8411,
            "max" : [
                1.595156192779541,
                0.836341381072998,
                0.6565595865249634
            ],
            "min" : [
                -1.7082717418670654,
                -1.8492746353149414,
                -0.7381253838539124
            ],
            "type" : "VEC3"
        },
        {
            "bufferView" : 1,
            "componentType" : 5126,
            "count" : 8411,
            "type" : "VEC3"
        },
        {
            "bufferView" : 2,
            "componentType" : 5126,
            "count" : 8411,
            "type" : "VEC2"
        },
        {
            "bufferView" : 3,
            "componentType" : 5123,
            "count" : 26094,
            "type" : "SCALAR"
        }
    ],
    "bufferViews" : [
        {
            "buffer" : 0,
            "byteLength" : 100932,
            "byteOffset" : 0,
            "target" : 34962
        },
        {
            "buffer" : 0,
            "byteLength" : 100932,
            "byteOffset" : 100932,
            "target" : 34962
        },
        {
            "buffer" : 0,
            "byteLength" : 67288,
            "byteOffset" : 201864,
            "target" : 34962
        },
        {
            "buffer" : 0,
            "byteLength" : 52188,
            "byteOffset" : 269152,
            "target" : 34963
        }
    ],
    "buffers" : [
        {
            "byteLength" : 321340,
            "uri" : "data:application/octet-stream;base64,"
        }
    ]
}
