{
    "asset" : {
        "generator" : "Khronos glTF Blender I/O v3.3.27",
        "version" : "2.0"
    },
    "scene" : 0,
    "scenes" : [
        {
            "name" : "Scene",
            "nodes" : [
                3
            ]
        }
    ],
    "nodes" : [
        {
            "mesh" : 0,
            "name" : "Object_2"
        },
        {
            "mesh" : 1,
            "name" : "Object_3"
        },
        {
            "children" : [
                0,
                1
            ],
            "name" : "teapot.obj.cleaner.materialmerger.gles"
        },
        {
            "children" : [
                2
            ],
            "name" : "Sketchfab_model",
            "rotation" : [
                -0.7071068286895752,
                0,
                0,
                0.7071067094802856
            ]
        }
    ],
    "materials" : [
        {
            "doubleSided" : true,
            "name" : "Default",
            "pbrMetallicRoughness" : {
                "metallicFactor" : 0,
                "roughnessFactor" : 0.8999999761581421
            }
        },
        {
            "doubleSided" : true,
            "name" : "default",
            "pbrMetallicRoughness" : {
                "baseColorTexture" : {
                    "index" : 0
                },
                "metallicFactor" : 0,
                "roughnessFactor" : 0.8999999761581421
            }
        }
    ],
    "meshes" : [
        {
            "name" : "Object_0",
            "primitives" : [
                {
                    "attributes" : {
                        "POSITION" : 0,
                        "NORMAL" : 1,
                        "TANGENT" : 2,
                        "TEXCOORD_0" : 3
                    },
                    "indices" : 4,
                    "material" : 0
                }
            ]
        },
        {
            "name" : "Object_1",
            "primitives" : [
                {
                    "attributes" : {
                        "POSITION" : 5,
                        "NORMAL" : 6,
                        "TANGENT" : 7,
                        "TEXCOORD_0" : 8
                    },
                    "indices" : 9,
                    "material" : 1
                }
            ]
        }
    ],
    "textures" : [
        {
            "sampler" : 0,
            "source" : 0
        }
    ],
    "images" : [
        {
            "bufferView" : 10,
            "mimeType" : "image/png",
            "name" : "default_baseColor"
        }
    ],
    "accessors" : [
        {
            "bufferView" : 0,
            "componentType" : 5126,
            "count" : 1922,
            "max" : [
                33.56470489501953,
                33.5647087097168,
                79.00656127929688
            ],
            "min" : [
                -33.5647087097168,
                -33.5647087097168,
                58.93854904174805
            ],
            "type" : "VEC3"
        },
        {
            "bufferView" : 1,
            "componentType" : 5126,
            "count" : 1922,
            "type" : "VEC3"
        },
        {
            "bufferView" : 2,
            "componentType" : 5126,
            "count" : 1922,
            "type" : "VEC4"
        },
        {
            "bufferView" : 3,
            "componentType" : 5126,
            "count" : 1922,
            "type" : "VEC2"
        },
        {
            "bufferView" : 4,
            "componentType" : 5123,
            "count" : 10656,
            "type" : "SCALAR"
        },
        {
            "bufferView" : 5,
            "componentType" : 5126,
            "count" : 6534,
            "max" : [
                82.29399871826172,
                47.9283561706543,
                59.87300491333008
            ],
            "min" : [
                -71.89253234863281,
                -47.9283561706543,
                0
            ],
            "type" : "VEC3"
        },
        {
            "bufferView" : 6,
            "componentType" : 5126,
            "count" : 6534,
            "type" : "VEC3"
        },
        {
            "bufferView" : 7,
            "componentType" : 5126,
            "count" : 6534,
            "type" : "VEC4"
        },
        {
            "bufferView" : 8,
            "componentType" : 5126,
            "count" : 6534,
            "type" : "VEC2"
        },
        {
            "bufferView" : 9,
            "componentType" : 5123,
            "count" : 36456,
            "type" : "SCALAR"
        }
    ],
    "bufferViews" : [
        {
            "buffer" : 0,
            "byteLength" : 23064,
            "byteOffset" : 0,
            "target" : 34962
        },
        {
            "buffer" : 0,
            "byteLength" : 23064,
            "byteOffset" : 23064,
            "target" : 34962
        },
        {
            "buffer" : 0,
            "byteLength" : 30752,
            "byteOffset" : 46128,
            "target" : 34962
        },
        {
            "buffer" : 0,
            "byteLength" : 15376,
            "byteOffset" : 76880,
            "target" : 34962
        },
        {
            "buffer" : 0,
            "byteLength" : 21312,
            "byteOffset" : 92256,
            "target" : 34963
        },
        {
            "buffer" : 0,
            "byteLength" : 78408,
            "byteOffset" : 113568,
            "target" : 34962
        },
        {
            "buffer" : 0,
            "byteLength" : 78408,
            "byteOffset" : 191976,
            "target" : 34962
        },
        {
            "buffer" : 0,
            "byteLength" : 104544,
            "byteOffset" : 270384,
            "target" : 34962
        },
        {
            "buffer" : 0,
            "byteLength" : 52272,
            "byteOffset" : 374928,
            "target" : 34962
        },
        {
            "buffer" : 0,
            "byteLength" : 72912,
            "byteOffset" : 427200,
            "target" : 34963
        },
        {
            "buffer" : 0,
            "byteLength" : 188,
            "byteOffset" : 500112
        }
    ],
    "samplers" : [
        {
            "magFilter" : 9729,
            "minFilter" : 9987
        }
    ],
    "buffers" : [
        {
            "byteLength" : 500300,
            "uri" : "data:application/octet-stream;base64,"
        }
    ]
}
